<svg id="Layer_1" data-name="Layer 1" xmlns="http://www.w3.org/2000/svg" viewBox="0 0 8 8"><defs><style>.cls-1{fill:none;stroke:#000;stroke-linecap:round;stroke-linejoin:round;stroke-width:0.25px;}</style></defs><circle class="cls-1" cx="3.68" cy="2.47" r="1.03"/><rect class="cls-1" x="1.62" y="6.47" width="4.76" height="0.75" rx="0.23"/><path class="cls-1" d="M2,5a1.08,1.08,0,0,1,1.07-1H4.3A1.08,1.08,0,0,1,5.38,5"/><path class="cls-1" d="M1.66,5.39A.31.31,0,0,1,1.92,5H6.08a.31.31,0,0,1,.26.42l-.29.86a.33.33,0,0,1-.3.22H2.25A.33.33,0,0,1,2,6.25Z"/><polyline class="cls-1" points="5.88 4.97 6.57 3.68 6.09 3.03"/><circle class="cls-1" cx="5.79" cy="2.77" r="0.34"/></svg>